<?xml version="1.0" encoding="UTF-8" standalone="no"?><!DOCTYPE svg PUBLIC "-//W3C//DTD SVG 1.1//EN" "http://www.w3.org/Graphics/SVG/1.1/DTD/svg11.dtd"><svg width="100%" height="100%" viewBox="0 0 16 16" version="1.1" xmlns="http://www.w3.org/2000/svg" xmlns:xlink="http://www.w3.org/1999/xlink" xml:space="preserve" xmlns:serif="http://www.serif.com/" style="fill-rule:evenodd;clip-rule:evenodd;stroke-linejoin:round;stroke-miterlimit:2;"><rect id="ico-16-linkedin-selected" x="0" y="0" width="16" height="16" style="fill:none;"/><path d="M14,3.487c0,-0.821 -0.666,-1.487 -1.487,-1.487l-9.026,0c-0.821,0 -1.487,0.666 -1.487,1.487l0,9.026c0,0.821 0.666,1.487 1.487,1.487l9.026,0c0.821,0 1.487,-0.666 1.487,-1.487l0,-9.026Zm-0.7,0l0,9.026c0,0.434 -0.353,0.787 -0.787,0.787l-9.026,0c-0.434,0 -0.787,-0.353 -0.787,-0.787l-0,-9.026c-0,-0.434 0.353,-0.787 0.787,-0.787c0,-0 9.026,-0 9.026,-0c0.434,-0 0.787,0.353 0.787,0.787Zm-7.215,7.879l-0,-4.542l-1.51,-0l0,4.542l1.51,-0Zm2.331,-0l-0,-2.537c-0,-0.136 0.01,-0.271 0.05,-0.368c0.109,-0.271 0.357,-0.552 0.774,-0.552c0.547,-0 0.765,0.416 0.765,1.027l-0,2.43l1.509,-0l-0,-2.605c-0,-1.396 -0.744,-2.045 -1.738,-2.045c-0.8,0 -1.159,0.44 -1.36,0.75l-0,0.016l-0.011,0c0.004,-0.005 0.007,-0.01 0.011,-0.016l-0,-0.642l-1.509,-0c0.019,0.426 -0,4.542 -0,4.542l1.509,-0Zm-3.086,-5.163c0.526,0 0.854,-0.348 0.854,-0.784c-0.01,-0.446 -0.327,-0.785 -0.844,-0.785c-0.516,0 -0.854,0.34 -0.854,0.785c0,0.436 0.328,0.784 0.834,0.784l0.01,0Z" style="fill:#007bff;"/></svg>