<?xml version="1.0" encoding="UTF-8" standalone="no"?><!DOCTYPE svg PUBLIC "-//W3C//DTD SVG 1.1//EN" "http://www.w3.org/Graphics/SVG/1.1/DTD/svg11.dtd"><svg width="100%" height="100%" viewBox="0 0 40 40" version="1.1" xmlns="http://www.w3.org/2000/svg" xmlns:xlink="http://www.w3.org/1999/xlink" xml:space="preserve" xmlns:serif="http://www.serif.com/" style="fill-rule:evenodd;clip-rule:evenodd;stroke-linejoin:round;stroke-miterlimit:2;"><rect id="about-logo" x="0" y="-0" width="40" height="40" style="fill:none;"/><g><ellipse cx="31.304" cy="5.752" rx="5.751" ry="5.752" style="fill:url(#_Linear1);"/><path d="M40,14.475l-18.962,0l-4.733,25.525l10.627,-0c4.831,0 8.974,-3.446 9.855,-8.196c1.384,-7.464 3.213,-17.329 3.213,-17.329Z" style="fill:url(#_Linear2);"/><ellipse cx="10.49" cy="8.371" rx="4.023" ry="4.023" style="fill:url(#_Linear3);"/><path d="M16.573,14.472l-13.263,-0l-3.31,17.853l7.433,-0c3.378,-0 6.276,-2.411 6.892,-5.733c0.968,-5.22 2.248,-12.12 2.248,-12.12Z" style="fill:url(#_Linear4);"/></g><defs><linearGradient id="_Linear1" x1="0" y1="0" x2="1" y2="0" gradientUnits="userSpaceOnUse" gradientTransform="matrix(33.8961,-36.4077,36.4077,33.8961,6.10392,36.4077)"><stop offset="0" style="stop-color:#f022ff;stop-opacity:1"/><stop offset="0.5" style="stop-color:#3793ee;stop-opacity:1"/><stop offset="1" style="stop-color:#28fff1;stop-opacity:1"/></linearGradient><linearGradient id="_Linear2" x1="0" y1="0" x2="1" y2="0" gradientUnits="userSpaceOnUse" gradientTransform="matrix(33.8961,-36.4077,36.4077,33.8961,6.10392,36.4077)"><stop offset="0" style="stop-color:#f022ff;stop-opacity:1"/><stop offset="0.5" style="stop-color:#3793ee;stop-opacity:1"/><stop offset="1" style="stop-color:#28fff1;stop-opacity:1"/></linearGradient><linearGradient id="_Linear3" x1="0" y1="0" x2="1" y2="0" gradientUnits="userSpaceOnUse" gradientTransform="matrix(33.8961,-36.4077,36.4077,33.8961,6.10392,36.4077)"><stop offset="0" style="stop-color:#f022ff;stop-opacity:1"/><stop offset="0.5" style="stop-color:#3793ee;stop-opacity:1"/><stop offset="1" style="stop-color:#28fff1;stop-opacity:1"/></linearGradient><linearGradient id="_Linear4" x1="0" y1="0" x2="1" y2="0" gradientUnits="userSpaceOnUse" gradientTransform="matrix(33.8961,-36.4077,36.4077,33.8961,6.10392,36.4077)"><stop offset="0" style="stop-color:#f022ff;stop-opacity:1"/><stop offset="0.5" style="stop-color:#3793ee;stop-opacity:1"/><stop offset="1" style="stop-color:#28fff1;stop-opacity:1"/></linearGradient></defs></svg>